<svg fill="currentColor" viewBox="0 0 24 24" xmlns="http://www.w3.org/2000/svg">
    <g id="SVGRepo_bgCarrier" stroke-width="0"></g>
    <g id="SVGRepo_tracerCarrier" stroke-linecap="round" stroke-linejoin="round"></g>
    <g id="SVGRepo_iconCarrier">
        <defs>
            <style>
                .cls-1 {
                    fill-rule: evenodd;
                }
            </style>
        </defs>
        <path id="cancel" class="cls-1"
            d="M936,120a12,12,0,1,1,12-12A12,12,0,0,1,936,120Zm0-22a10,10,0,1,0,10,10A10,10,0,0,0,936,98Zm4.706,14.706a0.951,0.951,0,0,1-1.345,0l-3.376-3.376-3.376,3.376a0.949,0.949,0,1,1-1.341-1.342l3.376-3.376-3.376-3.376a0.949,0.949,0,1,1,1.341-1.342l3.376,3.376,3.376-3.376a0.949,0.949,0,1,1,1.342,1.342l-3.376,3.376,3.376,3.376A0.95,0.95,0,0,1,940.706,112.706Z"
            transform="translate(-924 -96)"></path>
    </g>
</svg>