<svg viewBox="0 0 24 24" fill="none" xmlns="http://www.w3.org/2000/svg">
    <g id="SVGRepo_bgCarrier" stroke-width="0"></g>
    <g id="SVGRepo_tracerCarrier" stroke-linecap="round" stroke-linejoin="round"></g>
    <g id="SVGRepo_iconCarrier">
        <path
            d="M20 21H3C2.44772 21 2 20.5523 2 20L2 4C2 3.44772 2.44771 3 3 3H7.73381C8.08507 3 8.41058 3.1843 8.5913 3.4855L9.8087 5.5145C9.98942 5.8157 10.3149 6 10.6662 6H20C20.5523 6 21 6.44772 21 7V10"
            stroke="currentColor" stroke-width="2" stroke-linecap="round"></path>
        <path
            d="M4.79903 10.7369L2.34449 19.7369C2.17099 20.373 2.64988 21 3.30925 21H19.2362C19.6872 21 20.0823 20.6982 20.201 20.2631L22.6555 11.2631C22.829 10.627 22.3501 10 21.6908 10H5.7638C5.31284 10 4.91769 10.3018 4.79903 10.7369Z"
            stroke="currentColor" stroke-width="2"></path>
    </g>
</svg>