<svg viewBox="0 0 128 128" xmlns="http://www.w3.org/2000/svg" xmlns:xlink="http://www.w3.org/1999/xlink"
    aria-hidden="true" role="img" class="iconify iconify--noto" preserveAspectRatio="xMidYMid meet" fill="#000000">
    <g id="SVGRepo_bgCarrier" stroke-width="0"></g>
    <g id="SVGRepo_tracerCarrier" stroke-linecap="round" stroke-linejoin="round"></g>
    <g id="SVGRepo_iconCarrier">
        <linearGradient id="IconifyId17ecdb2904d178eab19629" x1="63.039" x2="84.899" y1="59.964" y2="125.12"
            gradientTransform="matrix(-1 0 0 1 128.83 0)" gradientUnits="userSpaceOnUse">
            <stop stop-color="#FFCA28" offset=".345"></stop>
            <stop stop-color="#FFB300" offset="1"></stop>
        </linearGradient>
        <path
            d="M18.33 61.39c11.56 0 22.22 8.84 28.33 8.84c6.04 0 14.86-3.05 9.57-14.49c-1.66-.98-3.06-2.47-3.79-4.53c-3.78-3.71-9.67-8-9.67-8S16.21 60.7 8.54 50.61c-4.2-5.53.41-10.14 5.65-12.38c9.09-3.87 14.24-6.75 21.41-12.76c4.86-4.75 12.09-3.14 15.82-.81c2.74 1.71 2.99 1.48 2.99 1.48l-.53 6.77c.47-2.56 1.04-5.32 1.77-8.74c.95-4.47 7.77-11.74 17.62-6.13c16.33 9.29 37.68 19.9 43.54 32.52c5.94 12.8 7.3 30.93.92 43.58c-4.56 9.05-13.88 17.36-22.12 20.3c-14.43 5.15-40.37 1.36-50.86-12.44c-7.6-10-6.09-17.98-27.76-25.3c0 0-8.33-2.43-8.76-6.35c-.79-7.32 5.21-8.96 10.1-8.96z"
            fill="url(#IconifyId17ecdb2904d178eab19629)"></path>
        <linearGradient id="IconifyId17ecdb2904d178eab19630" x1="56.593" x2="62.926" y1="70.202" y2="84.036"
            gradientTransform="matrix(-1 0 0 1 128.83 0)" gradientUnits="userSpaceOnUse">
            <stop stop-color="#FFB300" offset=".194"></stop>
            <stop stop-color="#FFB300" stop-opacity="0" offset="1"></stop>
        </linearGradient>
        <path
            d="M64.98 56.42c-.44 4.13 1.56 8.42 5.01 10.74c3.45 2.31 8.18 2.54 11.83.56c-.23 4.89 2.95 9.76 7.53 11.51a51.498 51.498 0 0 0-19.99 15.62c-.92-10.73-8.43-20.61-18.52-24.37c2.71-.25 5.08-2.21 6.27-4.65c1-2.05.03-6.18 1.11-7.67c.8-1.09 6.61-.34 6.76-1.74z"
            fill="url(#IconifyId17ecdb2904d178eab19630)"></path>
        <path
            d="M99.22 33.55c-2.86-1.08-19.27-4.94-22.22-5.48c-7.88-1.43-11.9 2.49-11.9 9.16c.01 9.59-.08 20.21.65 23.78c1.34 6.55 9.54 11.82 14.81 4.44"
            fill="none" stroke="#EDA600" stroke-linecap="round" stroke-linejoin="round" stroke-miterlimit="10"
            stroke-width="3"></path>
        <path
            d="M102.61 43.22s-6.65 0-14.04.46c-5.57.34-9.77 4.16-9.42 10.31c.36 6.4 1.49 13.74 3.02 19.55c1.32 5.02 12.6 6.46 19.28 1.38"
            fill="none" stroke="#EDA600" stroke-linecap="round" stroke-linejoin="round" stroke-miterlimit="10"
            stroke-width="3"></path>
        <path
            d="M56.24 55.74c5.29 11.44-3.53 14.49-9.57 14.49c-6.11 0-16.77-8.84-28.33-8.84c-4.89 0-10.89 1.64-10.1 8.97c.42 3.92 8.76 6.35 8.76 6.35c21.67 7.32 19.6 15.74 27.76 25.3c14.08 16.5 36.42 17.6 50.86 12.44c8.24-2.94 17.56-11.25 22.12-20.3c6.38-12.65 5.02-30.78-.92-43.58c-5.86-12.63-27.21-23.23-43.54-32.52c-9.86-5.61-16.67 1.66-17.62 6.13c-1.99 9.31-2.77 13.79-3.68 22.39c-.98 9.14 8.05 11.97 12.76 10"
            fill="none" stroke="#EDA600" stroke-linecap="round" stroke-linejoin="round" stroke-miterlimit="10"
            stroke-width="3"></path>
        <path
            d="M101.23 66.54c-1.85-3.44-8.87-1.86-8.87-1.86l2.02-5.09a2.027 2.027 0 0 1 3.3-.71c2.04 1.99 5.25 4.79 8.32 6.15c1.07.47 1.58 1.68 1.08 2.74c-1.31 2.82-3.36 8-2.97 12.16c.1 1.08-.84 1.96-1.91 1.81C82.16 79 73.16 97.17 73.16 97.17s1.29-11.54 12.45-18.5c3.97-2.48 5.62-1.42 6.7-1.38c2.82.09 6.11-.26 7.75-2.22c1.1-1.34 3.02-5.09 1.17-8.53z"
            fill="#EDA600"></path>
        <path
            d="M36.66 68.5s5.17 3.16 8.82 3.91s8.1.65 14.64 7.42c2.41 2.49 4.53 7.42 5.58 10.13c.09.24.46.16.44-.1c-.34-4.16-2.33-16.08-14.02-19.64"
            fill="#EDA600"></path>
        <path
            d="M54.41 26.14s-.24.23-2.99-1.48c-3.73-2.33-10.96-3.94-15.82.81c-7.17 6.01-12.32 8.89-21.41 12.76c-5.24 2.23-9.85 6.84-5.65 12.38c7.67 10.1 34.23-7.39 34.23-7.39s5.9 4.29 9.67 8"
            fill="none" stroke="#EDA600" stroke-linecap="round" stroke-linejoin="round" stroke-miterlimit="10"
            stroke-width="3"></path>
        <path d="M38.6 43.92c2.26-1.56 4.14-3.91 5.65-6.43c.25-.42.9-.32 1 .16c.44 2.19-.52 4.96-1.52 6.27"
            fill="#EDA600"></path>
    </g>
</svg>