<svg fill="currentColor" version="1.1" id="Capa_1" xmlns="http://www.w3.org/2000/svg"
    xmlns:xlink="http://www.w3.org/1999/xlink" viewBox="0 0 579.496 579.496" xml:space="preserve" stroke="currentColor">
    <g id="SVGRepo_bgCarrier" stroke-width="0"></g>
    <g id="SVGRepo_tracerCarrier" stroke-linecap="round" stroke-linejoin="round"></g>
    <g id="SVGRepo_iconCarrier">
        <g>
            <g>
                <path
                    d="M565.41,199.958c-0.869-3.237-3.023-5.385-6.475-6.469l-94.48-31.053V63.421c0-3.452-1.407-6.242-4.211-8.415 c-3.237-2.148-6.364-2.577-9.382-1.292l-94.48,30.411L298.144,3.892C296.216,1.297,293.407,0,289.741,0 c-3.672,0-6.469,1.303-8.415,3.892l-58.238,80.233l-94.48-30.411c-3.023-1.291-6.145-0.856-9.382,1.292 c-2.803,2.173-4.204,4.969-4.204,8.415v99.016L20.546,193.49c-3.452,1.089-5.612,3.237-6.475,6.469 c-1.083,3.464-0.643,6.585,1.292,9.388l58.244,80.233l-58.244,80.245c-1.94,2.589-2.375,5.723-1.292,9.388 c0.863,3.238,3.017,5.398,6.475,6.47l94.48,31.053v99.021c0,3.451,1.401,6.242,4.205,8.402c3.237,2.16,6.365,2.589,9.382,1.304 l94.48-30.423l58.238,80.246c2.154,2.803,4.963,4.21,8.415,4.21c3.446,0,6.255-1.401,8.416-4.21L356.4,495.04l94.48,30.423 c3.017,1.291,6.145,0.856,9.382-1.304c2.803-2.16,4.211-4.957,4.211-8.402v-99.016l94.48-31.053 c3.445-1.077,5.605-3.237,6.475-6.469c1.077-3.666,0.643-6.8-1.291-9.389l-58.244-80.245l58.244-80.233 C566.06,206.544,566.487,203.422,565.41,199.958z M461.389,361.899c-9.816,22.981-23.078,42.822-39.798,59.529 c-16.714,16.732-36.562,29.994-59.536,39.799c-22.974,9.822-47.074,14.725-72.314,14.725c-25.239,0-49.339-4.902-72.314-14.725 c-22.975-9.811-42.822-23.066-59.535-39.799c-16.714-16.707-29.982-36.555-39.798-59.529 c-9.817-22.974-14.719-47.081-14.719-72.319c0-25.227,4.902-49.34,14.719-72.308c9.816-22.98,23.078-42.809,39.798-59.542 c16.713-16.708,36.561-29.982,59.535-39.786c22.968-9.81,47.075-14.725,72.314-14.725c25.24,0,49.34,4.915,72.314,14.725 c22.969,9.811,42.816,23.079,59.536,39.786c16.713,16.732,29.981,36.567,39.798,59.542c9.816,22.962,14.725,47.081,14.725,72.308 C476.113,314.818,471.199,338.926,461.389,361.899z">
                </path>
                <circle cx="289.741" cy="289.745" r="157.768"></circle>
            </g>
        </g>
    </g>
</svg>