<svg viewBox="0 0 24 24" fill="none" xmlns="http://www.w3.org/2000/svg">
    <g id="SVGRepo_bgCarrier" stroke-width="0"></g>
    <g id="SVGRepo_tracerCarrier" stroke-linecap="round" stroke-linejoin="round"></g>
    <g id="SVGRepo_iconCarrier">
        <path fill-rule="evenodd" clip-rule="evenodd"
            d="M12 7V2H10C7.17157 2 5.75736 2 4.87868 2.87868C4 3.75736 4 5.17157 4 8V16C4 18.8284 4 20.2426 4.87868 21.1213C5.75736 22 7.17157 22 10 22H14C16.8284 22 18.2426 22 19.1213 21.1213C20 20.2426 20 18.8284 20 16V10H15L14.9456 10H14.9456H14.9456C14.5215 10.0001 14.1094 10.0002 13.7695 9.95447C13.3863 9.90295 12.949 9.77743 12.5858 9.41421C12.2226 9.051 12.097 8.61372 12.0455 8.23052C11.9998 7.8906 11.9999 7.47848 12 7.05441L12 7ZM14 7V2.00462C14.4116 2.01481 14.684 2.04749 14.9369 2.15224C15.3045 2.30448 15.5935 2.59351 16.1716 3.17157L18.8284 5.82843C19.4065 6.40649 19.6955 6.69552 19.8478 7.06306C19.9525 7.31595 19.9852 7.58836 19.9954 8H15C14.5003 8 14.2262 7.99788 14.036 7.97231L14.0287 7.97131L14.0277 7.96402C14.0021 7.77383 14 7.49967 14 7ZM10.8377 12.1239L14.3341 13.8421C15.2219 14.2784 15.222 15.7216 14.3341 16.1579L10.8377 17.8761C9.96773 18.3037 9 17.5719 9 16.4867V13.5133C9 12.4281 9.96773 11.6963 10.8377 12.1239Z"
            fill="currentColor"></path>
    </g>
</svg>